<?xml version="1.0" encoding="utf-8"?>
<!DOCTYPE svg PUBLIC "-//W3C//DTD SVG 1.1//EN" "http://www.w3.org/Graphics/SVG/1.1/DTD/svg11.dtd">
<svg version="1.1" id="Layer_1" xmlns="http://www.w3.org/2000/svg" xmlns:xlink="http://www.w3.org/1999/xlink" x="0px" y="0px"
	 width="1300px" height="442.079px" viewBox="0 0 1000 442.079" enable-background="new 0 0 1000 342.079" xml:space="preserve">
<g>
	<polygon fill="#024060" points="0,221.916 30.458,221.916 78.93,284.177 78.93,221.916 111.225,221.916 111.225,339.708 
		82.63,339.708 32.309,275.089 32.309,339.708 0,339.708 	"/>
	<polygon fill="#024060" points="127.414,221.916 208.222,221.916 208.222,250.483 159.724,250.483 159.724,267.522 201.23,267.522 
		201.23,293.266 159.724,293.266 159.724,311.936 212.279,311.936 212.279,339.708 127.414,339.708 	"/>
	<path fill="#024060" d="M484.846,281.147v-0.328c0-33.818,27.251-61.247,63.604-61.247c36.353,0,63.275,27.087,63.275,60.903v0.344
		c0,33.816-27.251,61.26-63.604,61.26S484.846,314.979,484.846,281.147 M578.416,281.147v-0.328
		c0-16.998-12.297-31.803-30.295-31.803c-17.834,0-29.801,14.476-29.801,31.459v0.344c0,16.997,12.282,31.802,30.13,31.802
		C566.448,312.621,578.416,298.146,578.416,281.147"/>
	<path fill="#024060" d="M624.021,221.916h56.9c18.013,0,30.445,4.716,38.369,12.79c6.908,6.744,10.445,15.818,10.445,27.443v0.314
		c0,18.012-9.623,29.951-24.25,36.176l28.102,41.068h-37.696l-23.729-35.682h-0.329H656.66v35.682h-32.639V221.916z
		 M678.757,278.461c11.089,0,17.491-5.401,17.491-13.968v-0.344c0-9.266-6.73-13.968-17.67-13.968h-22.576v28.279H678.757z"/>
	<polygon fill="#024060" points="746.721,221.916 779.372,221.916 779.372,269.702 819.934,221.916 858.645,221.916 
		814.039,272.554 860.139,339.708 820.948,339.708 791.325,295.966 779.372,309.263 779.372,339.708 746.721,339.708 	"/>
	<path fill="#024060" d="M857.809,322.216l18.176-21.713c11.598,9.253,24.551,14.133,38.19,14.133
		c8.772,0,13.448-3.029,13.448-8.074v-0.328c0-4.881-3.839-7.58-19.836-11.295c-25.072-5.717-44.441-12.776-44.441-36.998v-0.343
		c0-21.878,17.341-37.696,45.62-37.696c20.027,0,35.668,5.387,48.458,15.668l-16.313,23.029
		c-10.789-7.58-22.563-11.611-33.009-11.611c-7.896,0-11.761,3.373-11.761,7.567v0.343c0,5.387,4.043,7.744,20.355,11.445
		c27.114,5.895,43.934,14.627,43.934,36.683v0.356c0,24.057-19.013,38.341-47.621,38.341
		C892.146,341.723,872.256,335.185,857.809,322.216"/>
	<polygon fill="#024060" points="296.103,221.916 220.709,221.916 220.709,250.524 248.605,250.524 248.605,339.708 
		281.257,339.708 281.257,250.524 305.602,250.524 	"/>
	<polygon fill="#024060" points="376.828,339.708 398.541,272.745 420.405,339.708 447.478,339.708 487.368,221.931 
		454.551,221.931 434.62,290.071 412.701,221.931 385.204,221.931 363.257,290.071 343.354,221.931 309.865,221.931 
		349.769,339.708 	"/>
	<path fill="#024060" d="M612,105.509v-0.576C612,46.127,657.249,0,718.372,0c41.22,0,67.73,17.299,85.619,42.097l-42.11,32.57
		c-11.528-14.42-24.77-23.632-44.084-23.632c-28.279,0-48.156,23.92-48.156,53.324v0.576c0,30.281,19.877,53.899,48.156,53.899
		c21.041,0,33.42-9.801,45.537-24.496l42.097,29.965c-19.04,26.237-44.701,45.565-89.361,45.565
		C658.414,209.867,612,165.769,612,105.509"/>
	<path fill="#024060" d="M232.471,3.455h50.76l75.119,203.232h-52.912l-11.61-36.038h-71.281l-12.844,36.038h-52.337L232.471,3.455z
		 M278.693,127.126L257.46,64.77l-21.521,62.357H278.693z"/>
	<polygon fill="#024060" points="557.799,3.468 508.231,3.468 466.738,120.615 425.806,3.468 376.225,3.468 341.133,108.429 
		372.044,192.033 403.517,94.804 441.269,206.673 492.454,206.673 530.191,94.804 567.477,206.673 626.447,206.673 	"/>
	<path fill="#024060" d="M973.393,325.986h-5.031v-2.139h12.311v2.139h-5.031v13.529h-2.248V325.986z M984.14,323.848h2.399
		l5.578,8.595l5.539-8.595H1000v15.668h-2.18v-11.994l-5.606,8.485h-0.288l-5.552-8.485v11.994h-2.234V323.848z"/>
</g>
</svg>
