<?xml version="1.0" encoding="utf-8"?>
<svg version="1.1" id="Layer_1" xmlns="http://www.w3.org/2000/svg" xmlns:xlink="http://www.w3.org/1999/xlink" x="0px" y="0px"
	 viewBox="0 0 500 500" style="enable-background:new 0 0 500 500;" xml:space="preserve">
<style type="text/css">
	.st0{fill:#634EA0;}
	.st1{fill:#99CA3C;}
	.st2{fill:#221E1F;}
	.st3{fill:#FFFFFF;}
</style>
<g id="XMLID_1_">
	<path id="XMLID_4_" class="st0" d="M120.1,229.5c3.2-1.9,6.3-3.8,9.4-5.7c2.8,4.9,5.5,9.9,8.3,14.8c2.2,3.8,4.3,7.6,6.4,11.4
		c-2.1,3.9-4.3,7.7-6.5,11.5c-2.8,4.9-5.5,9.7-8.2,14.7c-3.1-1.9-6.3-3.7-9.4-5.5c2.7-5.1,5.7-10.1,8.4-15.1c-5.6,0-11.3,0-16.9,0
		c0-3.7,0-7.3,0-11c5.6,0,11.3,0,16.9,0C125.7,239.5,122.8,234.5,120.1,229.5z"/>
	<path id="XMLID_5_" class="st1" d="M146.1,223.8c3.2,1.9,6.3,3.8,9.5,5.8c-2.9,5-5.6,10-8.6,15c5.7,0,11.3,0,17,0
		c0.1,3.7,0.1,7.3,0.1,11c-5.7,0.1-11.3,0-17,0c2.8,5,5.7,10.1,8.5,15.1c-3.1,1.8-6.3,3.7-9.4,5.5c-2.8-4.9-5.5-9.8-8.4-14.6
		c2.2-3.8,4.4-7.7,6.5-11.5c-2.1-3.8-4.3-7.6-6.4-11.4C140.6,233.6,143.3,228.7,146.1,223.8z"/>
	<path id="XMLID_7_" class="st2" d="M67.5,230c14.4-0.4,28.9,0.2,43.4-0.2c0,2.5,0,5,0.1,7.5c-11.2,0-22.3,0-33.5,0c0,3,0,6,0,9
		c7.6,0,15.3,0,23,0c0,2.4,0,4.8,0,7.3c-7.7,0-15.3,0-23,0c0,3.2,0,6.4,0,9.6c11.4,0,22.8,0,34.2,0c0,2.5,0,5.1,0,7.7
		c-14.7,0-29.4,0-44.2,0V230z"/>
	<path id="XMLID_8_" class="st2" d="M163.8,230c16.5-0.2,32.9-0.2,49.4-0.1c0,2.6,0,5.2,0,7.8c-6.6,0-13.1,0-19.7,0
		c0.2,11,0,22,0.1,33c-3.4,0-6.7,0-10.1,0.1c0-11,0-22.1,0-33.1c-6.5,0.1-13,0-19.5,0C163.9,235.1,163.8,232.5,163.8,230z"/>
	<path id="XMLID_9_" class="st2" d="M218.9,229.8c8.1,0.3,16.2-0.2,24.3,0.2c6.1,0.3,12.9-1.1,18.4,2.5c6,3.7,7.2,12.5,3.6,18.2
		c-1.6,2.5-4.4,3.9-7.2,4.9c3.5,5,6.8,10,10.3,15c-3.7-0.1-7.5,0.2-11.2-0.2c-3.5-4.6-6.5-9.6-9.9-14.3c-6.2,0-12.4,0-18.5,0
		c0,4.8,0,9.6,0,14.4c-3.3,0-6.6,0-9.8,0C218.9,257.1,218.8,243.4,218.9,229.8z"/>
	<path id="XMLID_10_" class="st2" d="M270.6,270.7c8.1-13.5,16-27.2,24-40.8c3.3,0,6.5,0,9.8,0c8.1,13.6,16.3,27.2,24.4,40.8
		c-3.7,0-7.5,0-11.2,0c-1.7-2.7-3.4-5.4-5.1-8.1c-9,0-18,0-27,0c-1.6,2.7-3.3,5.4-4.9,8.1C277.2,270.7,273.9,270.7,270.6,270.7z"/>
	<path id="XMLID_11_" class="st2" d="M331.4,229.8c10.1,0.4,20.2-0.4,30.3,0.3c6.9,0.4,14.4,3.1,17.9,9.5c4.4,8.2,3.2,19.9-4.4,25.8
		c-4.8,4.2-11.3,5.2-17.4,5.3c-8.8,0-17.6,0-26.5,0C331.4,257.1,331.3,243.4,331.4,229.8z"/>
	<path id="XMLID_12_" class="st2" d="M388.5,229.9c14.4-0.2,28.8,0,43.2-0.2c0,2.5,0,5,0,7.5c-11.1-0.1-22.3,0-33.4-0.1
		c0,3,0,6,0,8.9c7.6,0,15.3,0.1,22.9,0c0,2.4,0,4.9,0,7.3c-7.7-0.1-15.3,0-23,0c0,3.2,0,6.4,0,9.6c11.4-0.1,22.8,0,34.2,0
		c0,2.5,0,5.1,0,7.6c-14.7,0-29.3,0-44,0C388.5,257,388.5,243.5,388.5,229.9z"/>
	<path id="XMLID_13_" class="st3" d="M228.7,237.7c7.4,0,14.8,0,22.2,0c2.4-0.1,5,0.9,6.1,3.1c0.7,2.1,0.6,4.8-1.4,6.2
		c-1.9,1.5-4.4,1.3-6.7,1.4c-6.8,0-13.5,0-20.3,0C228.7,244.8,228.7,241.3,228.7,237.7z"/>
	<path id="XMLID_14_" class="st3" d="M341.4,237.6c6.1,0,12.3-0.1,18.4,0c4.2,0.1,9,1.8,11,5.8c2,4.3,2,9.5-0.1,13.8
		c-2.1,3.9-7,4.8-11,5.2c-6.1,0.4-12.2,0.1-18.4,0.2C341.4,254.3,341.4,245.9,341.4,237.6z"/>
	<path id="XMLID_15_" class="st3" d="M289.7,254.9c3.1-5.5,6.3-11,9.5-16.5c3,5.5,6.1,11,9.2,16.5
		C302.2,254.9,296,254.9,289.7,254.9z"/>
</g>
</svg>
